<svg width="28" height="29" viewBox="0 0 28 29" fill="none" xmlns="http://www.w3.org/2000/svg">
<path d="M22.3433 17.2371C21.1299 17.1064 20.1219 16.8357 19.3193 16.4251C18.7406 16.2011 18.1479 16.1591 17.5413 16.2991C16.9346 16.4391 16.3979 16.7144 15.9313 17.1251L14.8673 18.3011C12.5153 16.7704 10.5739 14.8291 9.04326 12.4771L10.1073 11.4131C10.5553 10.9651 10.8399 10.4377 10.9613 9.83106C11.0826 9.2244 11.0313 8.6224 10.8073 8.02506C10.4713 7.14773 10.2379 6.13973 10.1073 5.00106C9.97659 4.23573 9.59859 3.5964 8.97326 3.08306C8.34793 2.56973 7.63393 2.31306 6.83126 2.31306H3.10726C2.52859 2.3504 2.01059 2.53706 1.55326 2.87306C1.09593 3.20906 0.74126 3.6384 0.48926 4.16106C0.23726 4.68373 0.129927 5.2344 0.16726 5.81306C0.353927 7.67973 0.764593 9.5044 1.39926 11.2871C2.03393 13.0697 2.87393 14.7451 3.91926 16.3131C5.78593 19.2624 8.19393 21.6704 11.1433 23.5371C12.7299 24.5264 14.4099 25.3384 16.1833 25.9731C17.9566 26.6077 19.7766 27.0464 21.6433 27.2891H22.0073C22.3993 27.2891 22.7913 27.2051 23.1833 27.0371C23.5753 26.8691 23.9206 26.6404 24.2193 26.3511C24.5179 26.0617 24.7466 25.7211 24.9053 25.3291C25.0639 24.9371 25.1433 24.5357 25.1433 24.1251V20.6251C25.1433 19.7664 24.8819 19.0197 24.3593 18.3851C23.8366 17.7504 23.1646 17.3677 22.3433 17.2371ZM23.2673 20.5131V24.0131C23.2673 24.4051 23.1179 24.7597 22.8193 25.0771C22.4833 25.3757 22.1286 25.5251 21.7553 25.5251H21.6433C19.9259 25.3571 18.2553 24.9837 16.6313 24.4051C14.9513 23.8077 13.3926 23.0144 11.9553 22.0251C10.6299 21.1664 9.39326 20.1631 8.24526 19.0151C7.09726 17.8671 6.08459 16.6211 5.20726 15.2771C4.27393 13.8211 3.51326 12.2717 2.92526 10.6291C2.33726 8.9864 1.93126 7.3064 1.70726 5.58906C1.76326 5.15973 1.93126 4.8004 2.21126 4.51106C2.49126 4.22173 2.82726 4.07706 3.21926 4.07706H6.83126C7.18593 4.07706 7.50793 4.20306 7.79726 4.45506C8.08659 4.70706 8.23126 5.00106 8.23126 5.33706C8.26859 5.8224 8.36193 6.36373 8.51126 6.96106C8.60459 7.3344 8.75393 7.87573 8.95926 8.58506L9.04326 8.83706C9.15526 9.13573 9.18326 9.4204 9.12726 9.69106C9.07126 9.96173 8.93126 10.1904 8.70726 10.3771L7.41926 11.7771C7.25126 11.8891 7.15326 12.0431 7.12526 12.2391C7.09726 12.4351 7.11126 12.6264 7.16726 12.8131C8.04459 14.3251 9.11326 15.7111 10.3733 16.9711C11.6333 18.2311 13.0193 19.2997 14.5313 20.1771C14.6993 20.2891 14.8859 20.3264 15.0913 20.2891C15.2966 20.2517 15.4553 20.1677 15.5673 20.0371L17.1073 18.5251C17.2939 18.3384 17.5366 18.2077 17.8353 18.1331C18.1339 18.0584 18.3953 18.0771 18.6193 18.1891C19.7019 18.6184 20.8686 18.8891 22.1193 19.0011C22.4739 19.0571 22.7726 19.2391 23.0153 19.5471C23.2579 19.8551 23.3419 20.1771 23.2673 20.5131ZM14.8673 3.93706C16.3793 4.0864 17.7513 4.55306 18.9833 5.33706C20.2153 6.12106 21.2233 7.12906 22.0073 8.36106C22.7913 9.59306 23.2579 10.9651 23.4073 12.4771C23.4073 12.7011 23.4959 12.8924 23.6733 13.0511C23.8506 13.2097 24.0326 13.2891 24.2193 13.2891H24.3313C24.5553 13.2891 24.7466 13.1911 24.9053 12.9951C25.0639 12.7991 25.1433 12.5797 25.1433 12.3371C24.9566 10.5824 24.3873 8.96773 23.4353 7.49306C22.5206 6.05573 21.3306 4.87973 19.8653 3.96506C18.3999 3.0504 16.7806 2.49973 15.0073 2.31306C14.7646 2.31306 14.5453 2.3924 14.3493 2.55106C14.1533 2.70973 14.0553 2.89173 14.0553 3.09706C14.0553 3.3024 14.1346 3.49373 14.2933 3.67106C14.4519 3.8484 14.6433 3.93706 14.8673 3.93706ZM14.0553 7.68906C13.9993 7.91306 14.0459 8.12773 14.1953 8.33306C14.3446 8.5384 14.5313 8.66906 14.7553 8.72506C15.7259 8.91173 16.5706 9.36906 17.2893 10.0971C18.0079 10.8251 18.4886 11.6931 18.7313 12.7011C18.7873 12.9251 18.8899 13.0977 19.0393 13.2191C19.1886 13.3404 19.3566 13.4011 19.5433 13.4011H19.6553C19.8979 13.3451 20.0893 13.2144 20.2293 13.0091C20.3693 12.8037 20.4113 12.5797 20.3553 12.3371C20.1313 11.0117 19.5386 9.86373 18.5773 8.89306C17.6159 7.9224 16.4633 7.28773 15.1193 6.98906C14.8766 6.93306 14.6526 6.96573 14.4473 7.08706C14.2419 7.2084 14.1113 7.40906 14.0553 7.68906Z" fill="#111827"/>
</svg>
