<svg width="24" height="25" viewBox="0 0 24 25" fill="none" xmlns="http://www.w3.org/2000/svg">
<g clip-path="url(#clip0_1475_319)">
<g clip-path="url(#clip1_1475_319)">
<path fill-rule="evenodd" clip-rule="evenodd" d="M23.5 12.0704C23.5 5.6801 18.3515 0.5 12.0014 0.5C5.64848 0.501437 0.5 5.6801 0.5 12.0719C0.5 17.8456 4.7056 22.6319 10.2019 23.5V15.4151H7.28415V12.0719H10.2048V9.52062C10.2048 6.62155 11.9224 5.02037 14.5484 5.02037C15.8075 5.02037 17.1226 5.24603 17.1226 5.24603V8.09193H15.6724C14.2451 8.09193 13.7995 8.9845 13.7995 9.90008V12.0704H16.9875L16.4787 15.4136H13.7981V23.4986C19.2944 22.6304 23.5 17.8441 23.5 12.0704Z" fill="url(#paint0_linear_1475_319)"/>
</g>
</g>
<defs>
<linearGradient id="paint0_linear_1475_319" x1="6.58173" y1="8.40625" x2="19.5951" y2="12.7744" gradientUnits="userSpaceOnUse">
<stop stop-color="#E67002"/>
<stop offset="1" stop-color="#992002"/>
</linearGradient>
<clipPath id="clip0_1475_319">
<rect width="24" height="24" fill="white" transform="translate(0 0.5)"/>
</clipPath>
<clipPath id="clip1_1475_319">
<rect width="24" height="24" fill="white" transform="translate(0 0.5)"/>
</clipPath>
</defs>
</svg>
