<svg width="24" height="24" viewBox="0 0 24 24" fill="none" xmlns="http://www.w3.org/2000/svg">
<path d="M2.007 2.9417C2.2425 2.0432 3.0615 1.5002 3.9225 1.5002C4.4535 1.5002 4.9365 1.6997 5.304 2.0252C5.70918 1.68532 6.22114 1.49902 6.75 1.49902C7.27886 1.49902 7.79082 1.68532 8.196 2.0252C8.57621 1.68617 9.06809 1.49924 9.5775 1.5002C10.4385 1.5002 11.2575 2.0432 11.493 2.9417C11.718 3.7997 12 5.1827 12 6.7502C12 7.62553 11.7811 8.48696 11.3632 9.25612C10.9454 10.0253 10.3418 10.6778 9.6075 11.1542C9.201 11.4197 9 11.7617 9 12.0542V12.6482C9 12.6822 9.002 12.7152 9.006 12.7472C9.057 13.1192 9.2415 14.5007 9.414 15.9332C9.5835 17.3387 9.75 18.8717 9.75 19.5002C9.75 20.2958 9.43393 21.0589 8.87132 21.6215C8.30871 22.1841 7.54565 22.5002 6.75 22.5002C5.95435 22.5002 5.19129 22.1841 4.62868 21.6215C4.06607 21.0589 3.75 20.2958 3.75 19.5002C3.75 18.8702 3.9165 17.3402 4.086 15.9332C4.2585 14.5007 4.443 13.1192 4.494 12.7472L4.5 12.6482V12.0542C4.5 11.7617 4.299 11.4197 3.8925 11.1542C3.15818 10.6778 2.55464 10.0253 2.13679 9.25612C1.71894 8.48696 1.50004 7.62553 1.5 6.7502C1.5 5.1827 1.782 3.7997 2.007 2.9417ZM9 7.5002C9 7.69911 8.92098 7.88987 8.78033 8.03053C8.63968 8.17118 8.44891 8.2502 8.25 8.2502C8.05109 8.2502 7.86032 8.17118 7.71967 8.03053C7.57902 7.88987 7.5 7.69911 7.5 7.5002V3.7502C7.5 3.55128 7.42098 3.36052 7.28033 3.21987C7.13968 3.07921 6.94891 3.0002 6.75 3.0002C6.55109 3.0002 6.36032 3.07921 6.21967 3.21987C6.07902 3.36052 6 3.55128 6 3.7502V7.5002C6 7.69911 5.92098 7.88987 5.78033 8.03053C5.63968 8.17118 5.44891 8.2502 5.25 8.2502C5.05109 8.2502 4.86032 8.17118 4.71967 8.03053C4.57902 7.88987 4.5 7.69911 4.5 7.5002V3.57769C4.5 3.42453 4.43916 3.27764 4.33085 3.16934C4.22255 3.06104 4.07566 3.0002 3.9225 3.0002C3.6735 3.0002 3.5025 3.14869 3.4575 3.32269C3.1619 4.44149 3.00819 5.59303 3 6.7502C2.99993 7.37575 3.15635 7.99138 3.45501 8.54104C3.75368 9.09069 4.18511 9.55689 4.71 9.89719C5.3685 10.3247 6 11.0762 6 12.0542V12.6482C6 12.7482 5.9935 12.8482 5.9805 12.9482C5.9295 13.3172 5.7465 14.6897 5.5755 16.1132C5.4015 17.5607 5.25 18.9842 5.25 19.5002C5.25 19.898 5.40804 20.2796 5.68934 20.5609C5.97064 20.8422 6.35218 21.0002 6.75 21.0002C7.14782 21.0002 7.52936 20.8422 7.81066 20.5609C8.09196 20.2796 8.25 19.898 8.25 19.5002C8.25 18.9842 8.1 17.5607 7.9245 16.1117C7.7535 14.6897 7.5705 13.3172 7.5195 12.9467C7.50809 12.8481 7.50158 12.749 7.5 12.6497V12.0557C7.5 11.0777 8.1315 10.3262 8.79 9.89869C9.31511 9.55826 9.74667 9.09181 10.0453 8.54188C10.344 7.99194 10.5003 7.376 10.5 6.7502C10.5 5.3522 10.248 4.10419 10.0425 3.32269C9.9975 3.15019 9.825 3.0002 9.5775 3.0002C9.42434 3.0002 9.27745 3.06104 9.16915 3.16934C9.06084 3.27764 9 3.42453 9 3.57769V7.5002ZM13.5 8.2502C13.5 6.45998 14.2112 4.74309 15.477 3.47722C16.7429 2.21135 18.4598 1.5002 20.25 1.5002C20.4489 1.5002 20.6397 1.57921 20.7803 1.71986C20.921 1.86052 21 2.05128 21 2.2502V11.2097L21.0285 11.4752C21.1478 12.5947 21.2623 13.7147 21.372 14.8352C21.5565 16.7192 21.75 18.8312 21.75 19.5002C21.75 20.2958 21.4339 21.0589 20.8713 21.6215C20.3087 22.1841 19.5456 22.5002 18.75 22.5002C17.9544 22.5002 17.1913 22.1841 16.6287 21.6215C16.0661 21.0589 15.75 20.2958 15.75 19.5002C15.75 18.8312 15.9435 16.7192 16.128 14.8352C16.2225 13.8797 16.317 12.9647 16.3875 12.2867L16.4175 12.0002H15C14.6022 12.0002 14.2206 11.8422 13.9393 11.5609C13.658 11.2796 13.5 10.898 13.5 10.5002V8.2502ZM17.9955 11.3297L17.964 11.6327C17.8468 12.7489 17.7328 13.8654 17.622 14.9822C17.4315 16.9127 17.25 18.9272 17.25 19.5002C17.25 19.898 17.408 20.2796 17.6893 20.5609C17.9706 20.8422 18.3522 21.0002 18.75 21.0002C19.1478 21.0002 19.5294 20.8422 19.8107 20.5609C20.092 20.2796 20.25 19.898 20.25 19.5002C20.25 18.9257 20.0685 16.9127 19.878 14.9822C19.768 13.8653 19.654 12.7488 19.536 11.6327L19.5045 11.3312L19.5 11.2502V3.0527C18.2503 3.23308 17.1074 3.85783 16.2809 4.81242C15.4544 5.76702 14.9997 6.98752 15 8.2502V10.5002H17.25C17.3552 10.5002 17.4592 10.5224 17.5552 10.5652C17.6513 10.6081 17.7372 10.6706 17.8075 10.7489C17.8779 10.8271 17.9309 10.9192 17.9633 11.0193C17.9957 11.1194 18.0066 11.2251 17.9955 11.3297Z" fill="#111111"/>
</svg>
