<svg width="24" height="24" viewBox="0 0 24 24" fill="none" xmlns="http://www.w3.org/2000/svg">
<path d="M14.998 5C16.8343 4.9991 18.5974 5.71983 19.9073 7.0068C21.2172 8.29378 21.9689 10.0439 22.0003 11.88C22.0318 13.716 21.3406 15.4909 20.0756 16.8221C18.8106 18.1532 17.0732 18.9339 15.238 18.996L14.998 19H9.00195C7.16563 19.0009 5.40249 18.2802 4.09262 16.9932C2.78275 15.7062 2.03105 13.9561 1.99957 12.12C1.96808 10.284 2.65934 8.50907 3.92431 7.17794C5.18929 5.84681 6.92668 5.06606 8.76195 5.004L9.00095 5H14.998ZM14.998 6.5H9.00195C7.5604 6.49696 6.17527 7.06001 5.14468 8.06797C4.11409 9.07592 3.52043 10.4482 3.49147 11.8895C3.4625 13.3307 4.00054 14.7258 4.9898 15.7743C5.97906 16.8229 7.34044 17.4411 8.78095 17.496L9.00195 17.5H14.998C16.4395 17.503 17.8246 16.94 18.8552 15.932C19.8858 14.9241 20.4795 13.5518 20.5084 12.1105C20.5374 10.6693 19.9994 9.27424 19.0101 8.22568C18.0208 7.17713 16.6595 6.55889 15.219 6.504L14.998 6.5ZM7.99995 9C8.19886 9 8.38963 9.07902 8.53028 9.21967C8.67093 9.36032 8.74995 9.55109 8.74995 9.75V11.248H10.25C10.4489 11.248 10.6396 11.327 10.7803 11.4677C10.9209 11.6083 11 11.7991 11 11.998C11 12.1969 10.9209 12.3877 10.7803 12.5283C10.6396 12.669 10.4489 12.748 10.25 12.748H8.74995V14.25C8.74995 14.4489 8.67093 14.6397 8.53028 14.7803C8.38963 14.921 8.19886 15 7.99995 15C7.80104 15 7.61027 14.921 7.46962 14.7803C7.32897 14.6397 7.24995 14.4489 7.24995 14.25V12.748H5.74995C5.65146 12.748 5.55393 12.7286 5.46294 12.6909C5.37194 12.6532 5.28927 12.598 5.21962 12.5283C5.14998 12.4587 5.09473 12.376 5.05704 12.285C5.01935 12.194 4.99995 12.0965 4.99995 11.998C4.99995 11.8995 5.01935 11.802 5.05704 11.711C5.09473 11.62 5.14998 11.5373 5.21962 11.4677C5.28927 11.398 5.37194 11.3428 5.46294 11.3051C5.55393 11.2674 5.65146 11.248 5.74995 11.248H7.24995V9.75C7.24995 9.55109 7.32897 9.36032 7.46962 9.21967C7.61027 9.07902 7.80104 9 7.99995 9ZM14.75 12.5C15.0815 12.5 15.3994 12.6317 15.6338 12.8661C15.8683 13.1005 16 13.4185 16 13.75C16 14.0815 15.8683 14.3995 15.6338 14.6339C15.3994 14.8683 15.0815 15 14.75 15C14.4184 15 14.1005 14.8683 13.8661 14.6339C13.6316 14.3995 13.5 14.0815 13.5 13.75C13.5 13.4185 13.6316 13.1005 13.8661 12.8661C14.1005 12.6317 14.4184 12.5 14.75 12.5ZM16.75 9C17.0815 9 17.3994 9.1317 17.6338 9.36612C17.8683 9.60054 18 9.91848 18 10.25C18 10.5815 17.8683 10.8995 17.6338 11.1339C17.3994 11.3683 17.0815 11.5 16.75 11.5C16.4184 11.5 16.1005 11.3683 15.8661 11.1339C15.6316 10.8995 15.5 10.5815 15.5 10.25C15.5 9.91848 15.6316 9.60054 15.8661 9.36612C16.1005 9.1317 16.4184 9 16.75 9Z" fill="#111111"/>
</svg>
