<svg width="25" height="25" viewBox="0 0 25 25" fill="none" xmlns="http://www.w3.org/2000/svg">
<path fill-rule="evenodd" clip-rule="evenodd" d="M11 2.61621C9.6446 2.61633 8.30887 2.94058 7.10427 3.5619C5.89966 4.18323 4.8611 5.08363 4.07525 6.18796C3.28939 7.2923 2.77902 8.56856 2.58672 9.91025C2.39442 11.252 2.52576 12.6202 2.96979 13.9008C3.41382 15.1814 4.15766 16.3373 5.13925 17.2719C6.12084 18.2066 7.31171 18.893 8.61252 19.2738C9.91333 19.6546 11.2864 19.7189 12.617 19.4611C13.9477 19.2034 15.1975 18.6312 16.262 17.7922L19.914 21.4442C20.1026 21.6264 20.3552 21.7272 20.6174 21.7249C20.8796 21.7226 21.1304 21.6174 21.3158 21.432C21.5012 21.2466 21.6064 20.9958 21.6087 20.7336C21.611 20.4714 21.5102 20.2188 21.328 20.0302L17.676 16.3782C18.664 15.1248 19.2792 13.6186 19.4511 12.0319C19.623 10.4453 19.3448 8.84223 18.6482 7.4063C17.9517 5.97038 16.8649 4.75957 15.5123 3.91244C14.1597 3.06532 12.596 2.6161 11 2.61621ZM4.50001 11.1162C4.50001 9.3923 5.18483 7.739 6.40382 6.52002C7.6228 5.30103 9.2761 4.61621 11 4.61621C12.7239 4.61621 14.3772 5.30103 15.5962 6.52002C16.8152 7.739 17.5 9.3923 17.5 11.1162C17.5 12.8401 16.8152 14.4934 15.5962 15.7124C14.3772 16.9314 12.7239 17.6162 11 17.6162C9.2761 17.6162 7.6228 16.9314 6.40382 15.7124C5.18483 14.4934 4.50001 12.8401 4.50001 11.1162Z" fill="url(#paint0_linear_1477_3547)"/>
<defs>
<linearGradient id="paint0_linear_1477_3547" x1="7.55333" y1="9.18483" x2="18.3646" y2="12.8137" gradientUnits="userSpaceOnUse">
<stop stop-color="#E67002"/>
<stop offset="1" stop-color="#992002"/>
</linearGradient>
</defs>
</svg>
