<svg width="28" height="29" viewBox="0 0 28 29" fill="none" xmlns="http://www.w3.org/2000/svg">
<path d="M22.084 4.63617H3.43603C2.85737 4.63617 2.31603 4.77617 1.81203 5.05617C1.30803 5.33617 0.906701 5.71884 0.608034 6.20417C0.309368 6.6895 0.160034 7.2215 0.160034 7.80017V21.8002C0.160034 22.3788 0.304701 22.9202 0.594034 23.4242C0.883368 23.9282 1.27537 24.3295 1.77003 24.6282C2.2647 24.9268 2.82003 25.0762 3.43603 25.0762H22.084C22.6627 25.0762 23.204 24.9315 23.708 24.6422C24.212 24.3528 24.6134 23.9608 24.912 23.4662C25.2107 22.9715 25.36 22.4162 25.36 21.8002V7.80017C25.36 7.2215 25.2107 6.6895 24.912 6.20417C24.6134 5.71884 24.212 5.33617 23.708 5.05617C23.204 4.77617 22.6627 4.63617 22.084 4.63617ZM3.43603 6.40017H22.084C22.4947 6.40017 22.8307 6.54017 23.092 6.82017C23.3534 7.10017 23.484 7.42684 23.484 7.80017V8.50017L13.46 14.9122C13.2174 15.0242 12.9654 15.0802 12.704 15.0802C12.4427 15.0802 12.1907 15.0242 11.948 14.9122L2.03603 8.50017V7.80017C2.03603 7.38951 2.1667 7.0535 2.42803 6.79217C2.68937 6.53084 3.02537 6.40017 3.43603 6.40017ZM22.084 23.3122H3.43603C3.04403 23.3122 2.7127 23.1675 2.44203 22.8782C2.17137 22.5888 2.03603 22.2668 2.03603 21.9122V10.6002L11.136 16.4242C11.528 16.7415 12.0694 16.9002 12.76 16.9002C13.4507 16.9002 13.992 16.7415 14.384 16.4242L23.484 10.6002V21.8002C23.484 22.2108 23.3534 22.5655 23.092 22.8642C22.8307 23.1628 22.4947 23.3122 22.084 23.3122Z" fill="#111827"/>
</svg>
