<svg width="24" height="24" viewBox="0 0 24 24" fill="none" xmlns="http://www.w3.org/2000/svg">
<path fill-rule="evenodd" clip-rule="evenodd" d="M1.4032 11.9991C1.4032 9.1887 2.51964 6.49336 4.50693 4.50607C6.49422 2.51879 9.18955 1.40234 12 1.40234C14.8104 1.40234 17.5058 2.51879 19.4931 4.50607C21.4804 6.49336 22.5968 9.1887 22.5968 11.9991C22.5968 14.8096 21.4804 17.5049 19.4931 19.4922C17.5058 21.4795 14.8104 22.5959 12 22.5959C9.18955 22.5959 6.49422 21.4795 4.50693 19.4922C2.51964 17.5049 1.4032 14.8096 1.4032 11.9991ZM12 2.92234C10.2407 2.9224 8.51927 3.43376 7.04522 4.39419C5.57117 5.35462 4.408 6.72274 3.69723 8.33211C2.98646 9.94148 2.75871 11.7227 3.0417 13.4591C3.32469 15.1956 4.10621 16.8123 5.2912 18.1127C6.01049 16.9858 7.00229 16.0585 8.17491 15.4164C9.34752 14.7743 10.6631 14.4382 12 14.4391C13.3369 14.4382 14.6525 14.7743 15.8251 15.4164C16.9977 16.0585 17.9895 16.9858 18.7088 18.1127C19.8938 16.8123 20.6753 15.1956 20.9583 13.4591C21.2413 11.7227 21.0135 9.94148 20.3028 8.33211C19.592 6.72274 18.4288 5.35462 16.9548 4.39419C15.4807 3.43376 13.7593 2.9224 12 2.92234ZM17.5712 19.1655C17.0054 18.1894 16.1927 17.3793 15.2149 16.8165C14.237 16.2537 13.1283 15.958 12 15.9591C10.8717 15.958 9.76301 16.2537 8.78513 16.8165C7.80725 17.3793 6.99462 18.1894 6.4288 19.1655C8.02054 20.4064 9.98174 21.0789 12 21.0759C14.0992 21.0759 16.032 20.3623 17.5712 19.1655ZM8.24 10.4071C8.24 9.40993 8.63614 8.45356 9.34128 7.74842C10.0464 7.04329 11.0028 6.64714 12 6.64714C12.9972 6.64714 13.9536 7.04329 14.6587 7.74842C15.3639 8.45356 15.76 9.40993 15.76 10.4071C15.76 11.4044 15.3639 12.3607 14.6587 13.0659C13.9536 13.771 12.9972 14.1671 12 14.1671C11.0028 14.1671 10.0464 13.771 9.34128 13.0659C8.63614 12.3607 8.24 11.4044 8.24 10.4071ZM12 8.16714C11.7058 8.16714 11.4146 8.22508 11.1428 8.33765C10.871 8.45023 10.6241 8.61522 10.4161 8.82323C10.2081 9.03123 10.0431 9.27816 9.93051 9.54993C9.81794 9.8217 9.76 10.113 9.76 10.4071C9.76 10.7013 9.81794 10.9926 9.93051 11.2644C10.0431 11.5361 10.2081 11.7831 10.4161 11.9911C10.6241 12.1991 10.871 12.3641 11.1428 12.4766C11.4146 12.5892 11.7058 12.6471 12 12.6471C12.5941 12.6471 13.1638 12.4111 13.5839 11.9911C14.004 11.571 14.24 11.0012 14.24 10.4071C14.24 9.81306 14.004 9.24331 13.5839 8.82323C13.1638 8.40314 12.5941 8.16714 12 8.16714Z" fill="#111111"/>
</svg>
