<svg width="24" height="24" viewBox="0 0 24 24" fill="none" xmlns="http://www.w3.org/2000/svg">
<mask id="path-1-outside-1_565_15184" maskUnits="userSpaceOnUse" x="0.919922" y="0.25" width="22" height="23" fill="black">
<rect fill="white" x="0.919922" y="0.25" width="22" height="23"/>
<path fill-rule="evenodd" clip-rule="evenodd" d="M7.30609 1.25C6.50509 1.25 5.95609 1.25 5.46609 1.383C4.95896 1.52218 4.48677 1.76647 4.08019 2.10001C3.67361 2.43354 3.34172 2.84886 3.10609 3.319C2.87909 3.771 2.77209 4.31 2.61509 5.096L1.99509 8.194C1.88529 8.73708 1.8959 9.29764 2.02617 9.83618C2.15644 10.3747 2.40321 10.8781 2.74909 11.311V14.056C2.74909 15.894 2.74909 17.35 2.90209 18.489C3.06009 19.661 3.39209 20.61 4.14009 21.359C4.88809 22.107 5.83709 22.439 7.01009 22.597C8.14909 22.75 9.60509 22.75 11.4421 22.75H12.5551C14.3931 22.75 15.8491 22.75 16.9881 22.597C18.1601 22.439 19.1091 22.107 19.8581 21.359C20.6061 20.61 20.9381 19.661 21.0961 18.489C21.2491 17.349 21.2491 15.894 21.2491 14.056V11.312C21.5949 10.8789 21.8416 10.3753 21.9717 9.83659C22.1018 9.29787 22.1122 8.73717 22.0021 8.194L21.3821 5.096C21.2261 4.31 21.1181 3.771 20.8921 3.319C20.6563 2.84876 20.3243 2.43337 19.9175 2.09983C19.5108 1.76629 19.0384 1.52206 18.5311 1.383C18.0421 1.25 17.4931 1.25 16.6911 1.25H7.30609ZM18.2671 12.75C18.7761 12.7509 19.28 12.6496 19.7491 12.452V14C19.7491 15.907 19.7471 17.262 19.6091 18.29C19.4741 19.295 19.2201 19.875 18.7971 20.298C18.3741 20.721 17.7941 20.975 16.7871 21.11C16.2766 21.1727 15.7633 21.2107 15.2491 21.224V18.468C15.2491 18.028 15.2491 17.648 15.2211 17.338C15.1911 17.008 15.1251 16.682 14.9471 16.375C14.7498 16.0329 14.466 15.7487 14.1241 15.551C13.8171 15.374 13.4911 15.308 13.1611 15.278C12.8511 15.25 12.4711 15.25 12.0311 15.25H11.9661C11.5261 15.25 11.1471 15.25 10.8361 15.278C10.5061 15.308 10.1811 15.374 9.87409 15.551C9.53183 15.7485 9.24763 16.0327 9.05009 16.375C8.87309 16.682 8.80709 17.008 8.77709 17.337C8.74909 17.649 8.74909 18.028 8.74909 18.467V21.224C8.23422 21.2108 7.72029 21.1728 7.20909 21.11C6.20409 20.975 5.62409 20.721 5.20109 20.298C4.77809 19.875 4.52409 19.295 4.38909 18.289C4.25009 17.262 4.24909 15.907 4.24909 14V12.452C5.04828 12.7891 5.93855 12.8433 6.77277 12.6059C7.60699 12.3684 8.33522 11.8534 8.83709 11.146C9.19992 11.6442 9.67565 12.0493 10.2253 12.3281C10.7749 12.6069 11.3828 12.7515 11.9991 12.75C12.6154 12.7515 13.2233 12.6069 13.7729 12.3281C14.3225 12.0493 14.7983 11.6442 15.1611 11.146C15.5126 11.6424 15.9782 12.0472 16.5187 12.3264C17.0592 12.6055 17.6588 12.7508 18.2671 12.75ZM10.2491 21.248C10.6371 21.2493 11.0538 21.25 11.4991 21.25H12.4991C12.9444 21.25 13.3611 21.2493 13.7491 21.248V18.5C13.7491 18.019 13.7481 17.708 13.7271 17.473C13.7071 17.248 13.6721 17.166 13.6481 17.125C13.5823 17.0112 13.4878 16.9168 13.3741 16.851C13.3331 16.827 13.2511 16.793 13.0261 16.772C12.6842 16.7511 12.3416 16.7438 11.9991 16.75C11.5181 16.75 11.2071 16.75 10.9721 16.772C10.7461 16.792 10.6651 16.827 10.6241 16.851C10.51 16.9166 10.4151 17.0111 10.3491 17.125C10.3261 17.165 10.2911 17.248 10.2711 17.473C10.2501 17.708 10.2491 18.019 10.2491 18.5V21.248ZM8.66909 2.75H7.41709C6.46309 2.75 6.13209 2.757 5.86409 2.83C5.55986 2.91344 5.27659 3.05992 5.03264 3.25994C4.7887 3.45995 4.58954 3.70903 4.44809 3.991C4.32309 4.24 4.25209 4.562 4.06509 5.498L3.46709 8.488C3.40336 8.79564 3.40305 9.11306 3.46619 9.42082C3.52932 9.72859 3.65458 10.0202 3.83429 10.2779C4.014 10.5356 4.2444 10.754 4.51138 10.9196C4.77836 11.0852 5.07632 11.1946 5.38703 11.2411C5.69774 11.2877 6.01468 11.2703 6.31846 11.1901C6.62224 11.11 6.90647 10.9687 7.15377 10.7749C7.40108 10.5812 7.60626 10.339 7.75676 10.0632C7.90726 9.78741 7.99993 9.48382 8.02909 9.171L8.09809 8.485L8.10209 8.443L8.66909 2.75ZM9.59009 8.625L10.1781 2.75H13.8201L14.4041 8.592C14.4368 8.92627 14.3995 9.26369 14.2946 9.58275C14.1896 9.9018 14.0193 10.1955 13.7946 10.445C13.5698 10.6946 13.2955 10.8946 12.9891 11.0322C12.6827 11.1699 12.351 11.2422 12.0152 11.2445C11.6793 11.2468 11.3466 11.179 11.0384 11.0456C10.7302 10.9122 10.4531 10.716 10.225 10.4695C9.9968 10.223 9.8225 9.93173 9.71318 9.61415C9.60387 9.29657 9.56195 8.95969 9.59009 8.625ZM18.1341 2.83C17.8661 2.757 17.5351 2.75 16.5811 2.75H15.3271L15.9701 9.17C16.0002 9.48192 16.0935 9.78445 16.2443 10.0592C16.395 10.3339 16.6002 10.575 16.8471 10.7679C17.0941 10.9608 17.3777 11.1014 17.6808 11.1811C17.9838 11.2609 18.3 11.2781 18.6099 11.2318C18.9198 11.1854 19.217 11.0765 19.4835 10.9116C19.75 10.7467 19.9801 10.5293 20.1598 10.2726C20.3396 10.0159 20.4652 9.72526 20.529 9.41846C20.5928 9.11166 20.5935 8.79508 20.5311 8.488L19.9341 5.498C19.7461 4.562 19.6751 4.24 19.5511 3.991C19.4095 3.70892 19.2102 3.45978 18.9661 3.25976C18.722 3.05974 18.4385 2.91332 18.1341 2.83Z"/>
</mask>
<path fill-rule="evenodd" clip-rule="evenodd" d="M7.30609 1.25C6.50509 1.25 5.95609 1.25 5.46609 1.383C4.95896 1.52218 4.48677 1.76647 4.08019 2.10001C3.67361 2.43354 3.34172 2.84886 3.10609 3.319C2.87909 3.771 2.77209 4.31 2.61509 5.096L1.99509 8.194C1.88529 8.73708 1.8959 9.29764 2.02617 9.83618C2.15644 10.3747 2.40321 10.8781 2.74909 11.311V14.056C2.74909 15.894 2.74909 17.35 2.90209 18.489C3.06009 19.661 3.39209 20.61 4.14009 21.359C4.88809 22.107 5.83709 22.439 7.01009 22.597C8.14909 22.75 9.60509 22.75 11.4421 22.75H12.5551C14.3931 22.75 15.8491 22.75 16.9881 22.597C18.1601 22.439 19.1091 22.107 19.8581 21.359C20.6061 20.61 20.9381 19.661 21.0961 18.489C21.2491 17.349 21.2491 15.894 21.2491 14.056V11.312C21.5949 10.8789 21.8416 10.3753 21.9717 9.83659C22.1018 9.29787 22.1122 8.73717 22.0021 8.194L21.3821 5.096C21.2261 4.31 21.1181 3.771 20.8921 3.319C20.6563 2.84876 20.3243 2.43337 19.9175 2.09983C19.5108 1.76629 19.0384 1.52206 18.5311 1.383C18.0421 1.25 17.4931 1.25 16.6911 1.25H7.30609ZM18.2671 12.75C18.7761 12.7509 19.28 12.6496 19.7491 12.452V14C19.7491 15.907 19.7471 17.262 19.6091 18.29C19.4741 19.295 19.2201 19.875 18.7971 20.298C18.3741 20.721 17.7941 20.975 16.7871 21.11C16.2766 21.1727 15.7633 21.2107 15.2491 21.224V18.468C15.2491 18.028 15.2491 17.648 15.2211 17.338C15.1911 17.008 15.1251 16.682 14.9471 16.375C14.7498 16.0329 14.466 15.7487 14.1241 15.551C13.8171 15.374 13.4911 15.308 13.1611 15.278C12.8511 15.25 12.4711 15.25 12.0311 15.25H11.9661C11.5261 15.25 11.1471 15.25 10.8361 15.278C10.5061 15.308 10.1811 15.374 9.87409 15.551C9.53183 15.7485 9.24763 16.0327 9.05009 16.375C8.87309 16.682 8.80709 17.008 8.77709 17.337C8.74909 17.649 8.74909 18.028 8.74909 18.467V21.224C8.23422 21.2108 7.72029 21.1728 7.20909 21.11C6.20409 20.975 5.62409 20.721 5.20109 20.298C4.77809 19.875 4.52409 19.295 4.38909 18.289C4.25009 17.262 4.24909 15.907 4.24909 14V12.452C5.04828 12.7891 5.93855 12.8433 6.77277 12.6059C7.60699 12.3684 8.33522 11.8534 8.83709 11.146C9.19992 11.6442 9.67565 12.0493 10.2253 12.3281C10.7749 12.6069 11.3828 12.7515 11.9991 12.75C12.6154 12.7515 13.2233 12.6069 13.7729 12.3281C14.3225 12.0493 14.7983 11.6442 15.1611 11.146C15.5126 11.6424 15.9782 12.0472 16.5187 12.3264C17.0592 12.6055 17.6588 12.7508 18.2671 12.75ZM10.2491 21.248C10.6371 21.2493 11.0538 21.25 11.4991 21.25H12.4991C12.9444 21.25 13.3611 21.2493 13.7491 21.248V18.5C13.7491 18.019 13.7481 17.708 13.7271 17.473C13.7071 17.248 13.6721 17.166 13.6481 17.125C13.5823 17.0112 13.4878 16.9168 13.3741 16.851C13.3331 16.827 13.2511 16.793 13.0261 16.772C12.6842 16.7511 12.3416 16.7438 11.9991 16.75C11.5181 16.75 11.2071 16.75 10.9721 16.772C10.7461 16.792 10.6651 16.827 10.6241 16.851C10.51 16.9166 10.4151 17.0111 10.3491 17.125C10.3261 17.165 10.2911 17.248 10.2711 17.473C10.2501 17.708 10.2491 18.019 10.2491 18.5V21.248ZM8.66909 2.75H7.41709C6.46309 2.75 6.13209 2.757 5.86409 2.83C5.55986 2.91344 5.27659 3.05992 5.03264 3.25994C4.7887 3.45995 4.58954 3.70903 4.44809 3.991C4.32309 4.24 4.25209 4.562 4.06509 5.498L3.46709 8.488C3.40336 8.79564 3.40305 9.11306 3.46619 9.42082C3.52932 9.72859 3.65458 10.0202 3.83429 10.2779C4.014 10.5356 4.2444 10.754 4.51138 10.9196C4.77836 11.0852 5.07632 11.1946 5.38703 11.2411C5.69774 11.2877 6.01468 11.2703 6.31846 11.1901C6.62224 11.11 6.90647 10.9687 7.15377 10.7749C7.40108 10.5812 7.60626 10.339 7.75676 10.0632C7.90726 9.78741 7.99993 9.48382 8.02909 9.171L8.09809 8.485L8.10209 8.443L8.66909 2.75ZM9.59009 8.625L10.1781 2.75H13.8201L14.4041 8.592C14.4368 8.92627 14.3995 9.26369 14.2946 9.58275C14.1896 9.9018 14.0193 10.1955 13.7946 10.445C13.5698 10.6946 13.2955 10.8946 12.9891 11.0322C12.6827 11.1699 12.351 11.2422 12.0152 11.2445C11.6793 11.2468 11.3466 11.179 11.0384 11.0456C10.7302 10.9122 10.4531 10.716 10.225 10.4695C9.9968 10.223 9.8225 9.93173 9.71318 9.61415C9.60387 9.29657 9.56195 8.95969 9.59009 8.625ZM18.1341 2.83C17.8661 2.757 17.5351 2.75 16.5811 2.75H15.3271L15.9701 9.17C16.0002 9.48192 16.0935 9.78445 16.2443 10.0592C16.395 10.3339 16.6002 10.575 16.8471 10.7679C17.0941 10.9608 17.3777 11.1014 17.6808 11.1811C17.9838 11.2609 18.3 11.2781 18.6099 11.2318C18.9198 11.1854 19.217 11.0765 19.4835 10.9116C19.75 10.7467 19.9801 10.5293 20.1598 10.2726C20.3396 10.0159 20.4652 9.72526 20.529 9.41846C20.5928 9.11166 20.5935 8.79508 20.5311 8.488L19.9341 5.498C19.7461 4.562 19.6751 4.24 19.5511 3.991C19.4095 3.70892 19.2102 3.45978 18.9661 3.25976C18.722 3.05974 18.4385 2.91332 18.1341 2.83Z" fill="white"/>
<path fill-rule="evenodd" clip-rule="evenodd" d="M7.30609 1.25C6.50509 1.25 5.95609 1.25 5.46609 1.383C4.95896 1.52218 4.48677 1.76647 4.08019 2.10001C3.67361 2.43354 3.34172 2.84886 3.10609 3.319C2.87909 3.771 2.77209 4.31 2.61509 5.096L1.99509 8.194C1.88529 8.73708 1.8959 9.29764 2.02617 9.83618C2.15644 10.3747 2.40321 10.8781 2.74909 11.311V14.056C2.74909 15.894 2.74909 17.35 2.90209 18.489C3.06009 19.661 3.39209 20.61 4.14009 21.359C4.88809 22.107 5.83709 22.439 7.01009 22.597C8.14909 22.75 9.60509 22.75 11.4421 22.75H12.5551C14.3931 22.75 15.8491 22.75 16.9881 22.597C18.1601 22.439 19.1091 22.107 19.8581 21.359C20.6061 20.61 20.9381 19.661 21.0961 18.489C21.2491 17.349 21.2491 15.894 21.2491 14.056V11.312C21.5949 10.8789 21.8416 10.3753 21.9717 9.83659C22.1018 9.29787 22.1122 8.73717 22.0021 8.194L21.3821 5.096C21.2261 4.31 21.1181 3.771 20.8921 3.319C20.6563 2.84876 20.3243 2.43337 19.9175 2.09983C19.5108 1.76629 19.0384 1.52206 18.5311 1.383C18.0421 1.25 17.4931 1.25 16.6911 1.25H7.30609ZM18.2671 12.75C18.7761 12.7509 19.28 12.6496 19.7491 12.452V14C19.7491 15.907 19.7471 17.262 19.6091 18.29C19.4741 19.295 19.2201 19.875 18.7971 20.298C18.3741 20.721 17.7941 20.975 16.7871 21.11C16.2766 21.1727 15.7633 21.2107 15.2491 21.224V18.468C15.2491 18.028 15.2491 17.648 15.2211 17.338C15.1911 17.008 15.1251 16.682 14.9471 16.375C14.7498 16.0329 14.466 15.7487 14.1241 15.551C13.8171 15.374 13.4911 15.308 13.1611 15.278C12.8511 15.25 12.4711 15.25 12.0311 15.25H11.9661C11.5261 15.25 11.1471 15.25 10.8361 15.278C10.5061 15.308 10.1811 15.374 9.87409 15.551C9.53183 15.7485 9.24763 16.0327 9.05009 16.375C8.87309 16.682 8.80709 17.008 8.77709 17.337C8.74909 17.649 8.74909 18.028 8.74909 18.467V21.224C8.23422 21.2108 7.72029 21.1728 7.20909 21.11C6.20409 20.975 5.62409 20.721 5.20109 20.298C4.77809 19.875 4.52409 19.295 4.38909 18.289C4.25009 17.262 4.24909 15.907 4.24909 14V12.452C5.04828 12.7891 5.93855 12.8433 6.77277 12.6059C7.60699 12.3684 8.33522 11.8534 8.83709 11.146C9.19992 11.6442 9.67565 12.0493 10.2253 12.3281C10.7749 12.6069 11.3828 12.7515 11.9991 12.75C12.6154 12.7515 13.2233 12.6069 13.7729 12.3281C14.3225 12.0493 14.7983 11.6442 15.1611 11.146C15.5126 11.6424 15.9782 12.0472 16.5187 12.3264C17.0592 12.6055 17.6588 12.7508 18.2671 12.75ZM10.2491 21.248C10.6371 21.2493 11.0538 21.25 11.4991 21.25H12.4991C12.9444 21.25 13.3611 21.2493 13.7491 21.248V18.5C13.7491 18.019 13.7481 17.708 13.7271 17.473C13.7071 17.248 13.6721 17.166 13.6481 17.125C13.5823 17.0112 13.4878 16.9168 13.3741 16.851C13.3331 16.827 13.2511 16.793 13.0261 16.772C12.6842 16.7511 12.3416 16.7438 11.9991 16.75C11.5181 16.75 11.2071 16.75 10.9721 16.772C10.7461 16.792 10.6651 16.827 10.6241 16.851C10.51 16.9166 10.4151 17.0111 10.3491 17.125C10.3261 17.165 10.2911 17.248 10.2711 17.473C10.2501 17.708 10.2491 18.019 10.2491 18.5V21.248ZM8.66909 2.75H7.41709C6.46309 2.75 6.13209 2.757 5.86409 2.83C5.55986 2.91344 5.27659 3.05992 5.03264 3.25994C4.7887 3.45995 4.58954 3.70903 4.44809 3.991C4.32309 4.24 4.25209 4.562 4.06509 5.498L3.46709 8.488C3.40336 8.79564 3.40305 9.11306 3.46619 9.42082C3.52932 9.72859 3.65458 10.0202 3.83429 10.2779C4.014 10.5356 4.2444 10.754 4.51138 10.9196C4.77836 11.0852 5.07632 11.1946 5.38703 11.2411C5.69774 11.2877 6.01468 11.2703 6.31846 11.1901C6.62224 11.11 6.90647 10.9687 7.15377 10.7749C7.40108 10.5812 7.60626 10.339 7.75676 10.0632C7.90726 9.78741 7.99993 9.48382 8.02909 9.171L8.09809 8.485L8.10209 8.443L8.66909 2.75ZM9.59009 8.625L10.1781 2.75H13.8201L14.4041 8.592C14.4368 8.92627 14.3995 9.26369 14.2946 9.58275C14.1896 9.9018 14.0193 10.1955 13.7946 10.445C13.5698 10.6946 13.2955 10.8946 12.9891 11.0322C12.6827 11.1699 12.351 11.2422 12.0152 11.2445C11.6793 11.2468 11.3466 11.179 11.0384 11.0456C10.7302 10.9122 10.4531 10.716 10.225 10.4695C9.9968 10.223 9.8225 9.93173 9.71318 9.61415C9.60387 9.29657 9.56195 8.95969 9.59009 8.625ZM18.1341 2.83C17.8661 2.757 17.5351 2.75 16.5811 2.75H15.3271L15.9701 9.17C16.0002 9.48192 16.0935 9.78445 16.2443 10.0592C16.395 10.3339 16.6002 10.575 16.8471 10.7679C17.0941 10.9608 17.3777 11.1014 17.6808 11.1811C17.9838 11.2609 18.3 11.2781 18.6099 11.2318C18.9198 11.1854 19.217 11.0765 19.4835 10.9116C19.75 10.7467 19.9801 10.5293 20.1598 10.2726C20.3396 10.0159 20.4652 9.72526 20.529 9.41846C20.5928 9.11166 20.5935 8.79508 20.5311 8.488L19.9341 5.498C19.7461 4.562 19.6751 4.24 19.5511 3.991C19.4095 3.70892 19.2102 3.45978 18.9661 3.25976C18.722 3.05974 18.4385 2.91332 18.1341 2.83Z" stroke="white" stroke-width="0.4" mask="url(#path-1-outside-1_565_15184)"/>
</svg>
